<svg xmlns="http://www.w3.org/2000/svg" viewBox="0 0 64 64" role="img" aria-labelledby="title desc">
  <title id="title">Slush Wallet Icon</title>
  <desc id="desc">Stylized initials SL on a rounded square background.</desc>
  <defs>
    <linearGradient id="slushGradient" x1="0%" y1="0%" x2="100%" y2="100%">
      <stop offset="0%" stop-color="#00C6FB" />
      <stop offset="100%" stop-color="#005BEA" />
    </linearGradient>
  </defs>
  <rect x="4" y="4" width="56" height="56" rx="14" fill="url(#slushGradient)" />
  <path
    d="M22 43c-2.8 0-5-1.8-5-4.2 0-2.1 1.3-3.4 3.5-4.1l6-1.8c1.5-.5 2.2-1.1 2.2-2.3 0-1.4-1.3-2.4-3.2-2.4-1.8 0-3.4.8-4 2.1l-3.5-1.9c1.2-2.6 4-4.3 7.6-4.3 4.3 0 7.2 2.4 7.2 6 0 3-1.8 4.8-5.5 5.9l-5.3 1.6c-1.4.4-2 .9-2 1.9 0 1.1 1.1 1.9 2.8 1.9 1.7 0 3.2-.8 3.8-2l3.5 1.9c-1.2 2.7-4 4.3-7.1 4.3Zm18.4-.2h-3.9V20.8h3.9l10.5 14.8V20.8h3.9V43h-3.9l-10.5-14.7Z"
    fill="#FFFFFF"
  />
</svg>
